<svg width="70" height="69" viewBox="0 0 70 69" fill="none" xmlns="http://www.w3.org/2000/svg">
<path fill-rule="evenodd" clip-rule="evenodd" d="M50 49.3765C50 43.9729 54.477 39.5926 60 39.5926C65.523 39.5926 70 43.9729 70 49.3765C70 54.7802 65.523 59.1605 60 59.1605C60 64.5642 55.523 68.9444 50 68.9444C44.477 68.9444 40 64.5642 40 59.1605C40 53.7568 44.477 49.3765 50 49.3765ZM10 10.2407C10 4.83706 14.477 0.456787 20 0.456787C25.523 0.456787 30 4.83706 30 10.2407C30 15.6444 25.523 20.0247 20 20.0247C20 25.4284 15.523 29.8086 10 29.8086C4.477 29.8086 0 25.4284 0 20.0247C0 14.621 4.477 10.2407 10 10.2407ZM20 18.0679C24.418 18.0679 28 14.5633 28 10.2407C28 5.91819 24.418 2.41358 20 2.41358C15.582 2.41358 12 5.91819 12 10.2407C12 14.5633 15.582 18.0679 20 18.0679ZM60 57.2037C64.418 57.2037 68 53.6991 68 49.3765C68 45.054 64.418 41.5494 60 41.5494C55.582 41.5494 52 45.054 52 49.3765C52 53.6991 55.582 57.2037 60 57.2037Z" fill="black"/>
</svg>
